<?xml version="1.0" encoding="UTF-8" standalone="no"?>
<!DOCTYPE svg PUBLIC "-//W3C//DTD SVG 1.1//EN" "http://www.w3.org/Graphics/SVG/1.1/DTD/svg11.dtd">
<svg version="1.1" xmlns="http://www.w3.org/2000/svg" xmlns:xlink="http://www.w3.org/1999/xlink" preserveAspectRatio="xMidYMid meet" viewBox="0 0 246.63 389.25" width="246.63" height="389.25"><defs><path d="M82.21 78.05L164.42 78.05L164.42 156.1L82.21 156.1L82.21 78.05Z" id="eDbuNEdFo"></path><mask id="maskb1r5YVJV9S" x="80.21" y="76.05" width="86.21" height="82.05" maskUnits="userSpaceOnUse"><rect x="80.21" y="76.05" width="86.21" height="82.05" fill="white"></rect><use xlink:href="#eDbuNEdFo" opacity="1" fill="black"></use></mask><path d="M82.21 156.1L164.42 156.1L164.42 234.15L82.21 234.15L82.21 156.1Z" id="aiGoTsLXs"></path><mask id="maska1sejUXo2" x="80.21" y="154.1" width="86.21" height="82.05" maskUnits="userSpaceOnUse"><rect x="80.21" y="154.1" width="86.21" height="82.05" fill="white"></rect><use xlink:href="#aiGoTsLXs" opacity="1" fill="black"></use></mask><path d="M82.21 233.15L164.42 233.15L164.42 311.2L82.21 311.2L82.21 233.15Z" id="a1ivk7CJJM"></path><mask id="maskfmNPjeDhG" x="80.21" y="231.15" width="86.21" height="82.05" maskUnits="userSpaceOnUse"><rect x="80.21" y="231.15" width="86.21" height="82.05" fill="white"></rect><use xlink:href="#a1ivk7CJJM" opacity="1" fill="black"></use></mask><path d="M164.42 155.1L246.63 155.1L246.63 233.15L164.42 233.15L164.42 155.1Z" id="c1vnbp2Kv1"></path><mask id="maskb3QsgTCBY8" x="162.42" y="153.1" width="86.21" height="82.05" maskUnits="userSpaceOnUse"><rect x="162.42" y="153.1" width="86.21" height="82.05" fill="white"></rect><use xlink:href="#c1vnbp2Kv1" opacity="1" fill="black"></use></mask><path d="M0 0L82.21 0L82.21 78.05L0 78.05L0 0Z" id="beioVqJzN"></path><mask id="maskaSfXNRRbP" x="-2" y="-2" width="86.21" height="82.05" maskUnits="userSpaceOnUse"><rect x="-2" y="-2" width="86.21" height="82.05" fill="white"></rect><use xlink:href="#beioVqJzN" opacity="1" fill="black"></use></mask><path d="M0 78.05L82.21 78.05L82.21 156.1L0 156.1L0 78.05Z" id="a1eOauPbGD"></path><mask id="maskbopogbr9" x="-2" y="76.05" width="86.21" height="82.05" maskUnits="userSpaceOnUse"><rect x="-2" y="76.05" width="86.21" height="82.05" fill="white"></rect><use xlink:href="#a1eOauPbGD" opacity="1" fill="black"></use></mask><path d="M0 155.1L82.21 155.1L82.21 233.15L0 233.15L0 155.1Z" id="a4uDYBoPWn"></path><mask id="maskb4UNSHSO9b" x="-2" y="153.1" width="86.21" height="82.05" maskUnits="userSpaceOnUse"><rect x="-2" y="153.1" width="86.21" height="82.05" fill="white"></rect><use xlink:href="#a4uDYBoPWn" opacity="1" fill="black"></use></mask><path d="M0 233.15L82.21 233.15L82.21 311.2L0 311.2L0 233.15Z" id="d21V318Ug"></path><mask id="maskaqR0zUMOE" x="-2" y="231.15" width="86.21" height="82.05" maskUnits="userSpaceOnUse"><rect x="-2" y="231.15" width="86.21" height="82.05" fill="white"></rect><use xlink:href="#d21V318Ug" opacity="1" fill="black"></use></mask><path d="M0 311.2L82.21 311.2L82.21 389.25L0 389.25L0 311.2Z" id="b2A9mmxlTn"></path><mask id="maskbkp63p5Ue" x="-2" y="309.2" width="86.21" height="82.05" maskUnits="userSpaceOnUse"><rect x="-2" y="309.2" width="86.21" height="82.05" fill="white"></rect><use xlink:href="#b2A9mmxlTn" opacity="1" fill="black"></use></mask></defs><g><g><g><use xlink:href="#eDbuNEdFo" opacity="1" fill="#b2891d" fill-opacity="1"></use><g mask="url(#maskb1r5YVJV9S)"><use xlink:href="#eDbuNEdFo" opacity="1" fill-opacity="0" stroke="#b2891d" stroke-width="2" stroke-opacity="1"></use></g></g><g><use xlink:href="#aiGoTsLXs" opacity="1" fill="#b2891d" fill-opacity="1"></use><g mask="url(#maska1sejUXo2)"><use xlink:href="#aiGoTsLXs" opacity="1" fill-opacity="0" stroke="#b2891d" stroke-width="2" stroke-opacity="1"></use></g></g><g><use xlink:href="#a1ivk7CJJM" opacity="1" fill="#b2891d" fill-opacity="1"></use><g mask="url(#maskfmNPjeDhG)"><use xlink:href="#a1ivk7CJJM" opacity="1" fill-opacity="0" stroke="#b2891d" stroke-width="2" stroke-opacity="1"></use></g></g><g><use xlink:href="#c1vnbp2Kv1" opacity="1" fill="#b2891d" fill-opacity="1"></use><g mask="url(#maskb3QsgTCBY8)"><use xlink:href="#c1vnbp2Kv1" opacity="1" fill-opacity="0" stroke="#b2891d" stroke-width="2" stroke-opacity="1"></use></g></g><g><use xlink:href="#beioVqJzN" opacity="1" fill="#b2891d" fill-opacity="1"></use><g mask="url(#maskaSfXNRRbP)"><use xlink:href="#beioVqJzN" opacity="1" fill-opacity="0" stroke="#b2891d" stroke-width="2" stroke-opacity="1"></use></g></g><g><use xlink:href="#a1eOauPbGD" opacity="1" fill="#b2891d" fill-opacity="1"></use><g mask="url(#maskbopogbr9)"><use xlink:href="#a1eOauPbGD" opacity="1" fill-opacity="0" stroke="#b2891d" stroke-width="2" stroke-opacity="1"></use></g></g><g><use xlink:href="#a4uDYBoPWn" opacity="1" fill="#b2891d" fill-opacity="1"></use><g mask="url(#maskb4UNSHSO9b)"><use xlink:href="#a4uDYBoPWn" opacity="1" fill-opacity="0" stroke="#b2891d" stroke-width="2" stroke-opacity="1"></use></g></g><g><use xlink:href="#d21V318Ug" opacity="1" fill="#b2891d" fill-opacity="1"></use><g mask="url(#maskaqR0zUMOE)"><use xlink:href="#d21V318Ug" opacity="1" fill-opacity="0" stroke="#b2891d" stroke-width="2" stroke-opacity="1"></use></g></g><g><use xlink:href="#b2A9mmxlTn" opacity="1" fill="#b2891d" fill-opacity="1"></use><g mask="url(#maskbkp63p5Ue)"><use xlink:href="#b2A9mmxlTn" opacity="1" fill-opacity="0" stroke="#b2891d" stroke-width="2" stroke-opacity="1"></use></g></g></g></g></svg>